<svg clip-rule="evenodd" fill-rule="evenodd" height="512" stroke-linejoin="round" stroke-miterlimit="2" viewBox="0 0 267 267" width="512" xmlns="http://www.w3.org/2000/svg"><path d="m250 110.512h-233.333l-.107.002c-1.101.056-1.977.967-1.977 2.081v113.242c0 11.874 9.626 21.5 21.499 21.5h194.502c11.874 0 21.499-9.626 21.499-21.5 0-31.228 0-113.242 0-113.242 0-1.15-.933-2.083-2.083-2.083z" fill="#faa923"/><path d="m22.899 85.363-.076.059-.38.391.348-.367c-4.999 3.936-8.208 10.043-8.208 16.899v10.25c0 .593.253 1.158.695 1.553l61.16 54.653c6.335 5.661 13.303 10.215 20.661 13.664.747.351 1.632.226 2.254-.317 19.464-16.985 48.5-16.985 67.961 0 .622.543 1.506.668 2.254.317 7.357-3.449 14.326-8.003 20.661-13.664 0 0 61.159-54.653 61.159-54.653.442-.395.695-.96.695-1.553v-10.25c0-6.873-3.225-12.993-8.245-16.928 0 0-.098-.073-.112-.083-3.092-2.25-76.567-55.099-76.567-55.099-20.206-14.54-47.445-14.54-67.651.001 0-.001-73.777 53.066-76.595 55.119z" fill="#e98d0a"/><path d="m250.786 94.974-60.557 54.115c-6.335 5.661-13.304 10.215-20.661 13.664-.748.35-1.632.226-2.254-.317-19.461-16.985-48.497-16.985-67.961 0-.622.543-1.507.667-2.254.317-7.358-3.449-14.326-8.003-20.661-13.664l-60.558-54.115c-.839 2.299-1.297 4.782-1.297 7.371v10.25c0 .593.253 1.158.695 1.553l61.16 54.653c6.335 5.661 13.303 10.215 20.661 13.664.747.351 1.632.226 2.254-.317 19.464-16.985 48.5-16.985 67.961 0 .622.543 1.506.668 2.254.317 7.357-3.449 14.326-8.003 20.661-13.664 0 0 61.159-54.653 61.159-54.653.442-.395.695-.96.695-1.553v-10.25c0-2.59-.458-5.073-1.297-7.371z" fill="#d6820b"/><path d="m60.02 153.774c.116.337.316.639.582.876l15.836 14.151c6.335 5.661 13.303 10.215 20.661 13.664.747.351 1.632.226 2.254-.317 19.464-16.985 48.5-16.985 67.961 0 .622.543 1.506.668 2.254.317 7.357-3.449 14.326-8.003 20.661-13.664 0 0 15.836-14.151 15.836-14.151.266-.237.466-.539.582-.876 2.72-7.904 4.197-16.383 4.197-25.204 0-42.78-34.731-77.511-77.511-77.511-42.779 0-77.511 34.731-77.511 77.511 0 8.821 1.478 17.3 4.198 25.204z" fill="#67a042"/><path d="m209.851 140.997-19.622 17.534c-6.335 5.661-13.304 10.215-20.661 13.664-.748.351-1.632.226-2.254-.317-19.461-16.984-48.497-16.985-67.961 0-.622.543-1.507.668-2.254.317-7.358-3.449-14.326-8.003-20.661-13.664l-19.623-17.534c.71 4.393 1.789 8.663 3.205 12.777.116.337.316.639.582.876l15.836 14.151c6.335 5.661 13.303 10.215 20.661 13.664.747.351 1.632.226 2.254-.317 19.464-16.985 48.5-16.985 67.961 0 .622.543 1.506.668 2.254.317 7.357-3.449 14.326-8.003 20.661-13.664 0 0 15.836-14.151 15.836-14.151.266-.237.466-.539.582-.876 1.416-4.114 2.495-8.384 3.204-12.777z" fill="#629143"/><path d="m90.296 135.148 22.34 21.285c4.64 4.42 11.934 4.42 16.574-.002 0 0 47.163-44.95 47.163-44.95 4.799-4.574 4.982-12.184.408-16.983s-12.184-4.982-16.983-.408c0 0-38.878 37.053-38.878 37.053s-14.052-13.389-14.052-13.389c-4.801-4.573-12.41-4.389-16.984.411-4.573 4.8-4.389 12.41.412 16.983z" fill="#f3f8e9"/><path d="m26.33 241.81c-.52.465-.773 1.158-.675 1.848.099.69.535 1.285 1.164 1.585 2.805 1.342 5.947 2.094 9.263 2.094h194.502c3.317 0 6.458-.752 9.264-2.094.628-.3 1.065-.895 1.163-1.585.099-.69-.154-1.383-.674-1.848l-69.784-62.36c-21.198-18.943-53.241-18.943-74.439 0 0 0-69.784 62.36-69.784 62.36z" fill="#fbc02a"/></svg>